<?xml version="1.0" ?><svg viewBox="0 0 200 200" xmlns="http://www.w3.org/2000/svg"><title/><path d="M135.225,120.814c-2.968-1.723-6.984-1.272-6.984-1.373-11.077-.1-14.323,14.355-3.523,18.112a99.755,99.755,0,0,0,.995,10.212,1.521,1.521,0,0,0,1.213,1.365c1.53.48,5.85,0,6.322-.832,1.028-1.82-.349-9.028-.764-11.086,4.473-1.646,7.313-5.356,6.313-10.295C138.384,124.9,137.888,122.361,135.225,120.814Z"/><path d="M180.722,69.832c-.767-1.532-7.312-4.133-9.217-3.928a.853.853,0,0,0-.659.353c-1.279,1.98-6.785,16.127-6.575,17.326.123.7,2.72,1.988,3.344,2.284.649.307,2.168,1.035,2.754.673C172.02,85.524,181.512,71.429,180.722,69.832Zm-.755.615c-.852,2.641-8.446,14.183-10.028,15.3a14.519,14.519,0,0,1-4.792-2.358c.307-1.762,5.257-16.287,6.176-17.06C172.006,65.75,180.429,69.005,179.967,70.447Z"/><path d="M175.584,101.109c1.932.188,18.177-5.238,18.538-6.989.368-1.8-3.611-8.251-5.088-8.769a.785.785,0,0,0-.405-.037c-1.85.554-15.424,8.619-16.049,9.773-.338.636.924,3.215,1.237,3.827C174.143,99.553,174.9,101.043,175.584,101.109Zm-2.191-5.639c1.3-1.189,14.257-9.732,15.461-9.79.9-.043,5.559,7.6,4.293,8.466-2.338,1.591-15.5,6.139-17.422,6.068A14.168,14.168,0,0,1,173.393,95.47Z"/><path d="M194.663,113.534c-1.613-1-16.9-5.5-18.13-5.194-.692.171-1.781,2.8-2.04,3.458s-.883,2.225-.467,2.781c1.166,1.548,16.143,9.787,17.69,8.882,1.51-.885,3.543-7.384,3.257-9.312A.92.92,0,0,0,194.663,113.534Zm-3.622,9.225c-2.7-.622-14.967-7.17-16.256-8.678a14.14,14.14,0,0,1,2.009-4.883c1.939.164,16.944,4.013,17.739,4.7C195.232,114.509,192.491,123.1,191.041,122.759Z"/><path d="M61.587,25.9a.5.5,0,0,0,1-.094c-.02-.208-.064-.4-.113-.661a.505.505,0,0,0-.58-.4.5.5,0,0,0-.4.58C61.544,25.635,61.573,25.751,61.587,25.9Z"/><path d="M66.254,28.894c.4-.327.184-1.76.086-2.266a6.827,6.827,0,0,0-.6-1.812.163.163,0,0,0-.316.081,16.172,16.172,0,0,0,.15,1.9s.181,1.508.166,1.592c-.05.267-.991.2-1.071.461C64.58,29.132,65.8,29.267,66.254,28.894Z"/><path d="M67.485,25.564a.5.5,0,0,0,1-.013c0-.261-.025-.363-.058-.7a.511.511,0,0,0-.542-.454.5.5,0,0,0-.454.542C67.466,25.3,67.482,25.362,67.485,25.564Z"/><path d="M165.355,104.262a28.852,28.852,0,0,0-6.042-.872c-7.5-2.983-35.4-.143-43.508,1-.309-3.24-.751-7.961-.756-8.463-.092-9.523,3.906-14.745,9.119-16.8,8.487.5,17.076,6.945,16.4,15.662,0,.053.029.187.223.237.932.236,11.428.477,13.893-.878,3.555-.132,7.125-.552,7.279-1.574.436-2.89-1.226-9.323-2.291-11.742-6.106-13.836-23.309-19.734-37.848-16.074-8.965.475-17.725,4.259-23.357,11.683-5.644,7.45-4.888,24-3.662,33.311a2.348,2.348,0,0,0-1.035,1.328c-2.258,11.836,6.81,46.478,11.666,53.463,3.166,4.547,47.99,5.44,58.867-3.031,2.43-1.9,5.544-47.1,3.541-54.96C167.551,105.4,167.187,104.817,165.355,104.262ZM99.186,76.98c13.184-17.443,44.4-14.267,53.139,5.117,1.062,2.349,2.743,8.671,2.358,11.408-.165,1.213-11.864,1.51-13.744,1.172,1.212-17.543-33.557-26.254-33.5,2.26.01,2.52.855,8.559.865,8.66-5.651,1.055-10.232,2.29-12.662,3.623C94.462,100.014,93.862,84.014,99.186,76.98ZM157,159.676c-8.846,6.9-48.3,8.085-50.9,4.4-4.773-6.76-13.978-40.875-11.752-52.532,1.184-6.2,61.8-11.532,65.584-6.768C162.657,108.188,158.936,158.166,157,159.676Z"/><path d="M47.564,85.743a.264.264,0,0,0,.015.037A.239.239,0,0,1,47.564,85.743Z"/><path d="M98.994,54.982c-1.3-2.944-8.322-12.562-11.4-12.72-.861-.045-3.85,1.507-8.031,3.971C78.678,44.708,77,44.6,75.18,45.14a8.673,8.673,0,0,0-2.9,1.681,37.852,37.852,0,0,0-7.788-5.2l.352-3.8c.1-.062.007-.057.758-.073a2.821,2.821,0,0,0,1.083-.475,12.653,12.653,0,0,0,1.3-.75c.366-.284.906-.467,1.273-.8.719-.647.494-1.431.621-2.066.272-1.375.944-3.441.134-3.981a35.74,35.74,0,0,0,.829-5.73c.888-.038,1.62-1.375,1.338-1.908a1.329,1.329,0,0,0,.246-1.376c.5-.356.511-1.33.4-1.877-.029-.137-.042-.052.078-.261.4-.7.376-2.011-.509-2.117a2.029,2.029,0,0,0-.494.024c.143-.984-.245-1.256-.914-1.673a1.373,1.373,0,0,0-.971-.265c-.194-.256-.236-.8-1.021-.816-.877-.015-.556.229-1.157-.572a1.71,1.71,0,0,0-1.616-.882,1.838,1.838,0,0,0-.573.209,1,1,0,0,0-1.421-.841c-.234.091-.566.313-.7.359.021-.556-.746-1.157-1.691-.9-.428.117-.794.4-1.267.566-.171.059-.5-.538-1.037-.4-.475.125-1.2.822-1.454.827a.824.824,0,0,0-.514-.155,5,5,0,0,0-1.584.9,1.762,1.762,0,0,0-1.406.029c-.683.346-.483.886-.537,1.46-.239.156-.968.155-1.275.333-.663.388-.513.766-.747,1.221-.2.392-.511.492-.605,1.086a1.146,1.146,0,0,0,.419,1.1,1.3,1.3,0,0,0-1.023.543,1.6,1.6,0,0,0-.1,1.35l-.024.007a1.56,1.56,0,0,0-.833,1.643.6.6,0,0,0,.381.42,1.928,1.928,0,0,0,.346,2.257.842.842,0,0,0,.392.094,4.272,4.272,0,0,0-.03.674c.052.654.775.642.889.688.056.216-.283.9-.2,1.335a1.134,1.134,0,0,0,.242.438c-.437.86.629.976.73,1.05,2.606,1.935,2.012,1.4,2.4,1.749-.094.767-1.8,6.147-2.1,7.753a34.989,34.989,0,0,0-11.062.059c-6.863.652-23.458,10.747-23.914,13a2.973,2.973,0,0,0,.3,1.463c-3.226,2.372-7.36,5.815-7.208,9.739a52.845,52.845,0,0,0,1.8,11.488C5,79.808,2.336,91.842,8.111,101.346a23.414,23.414,0,0,0,6.4,9.464c4.678,4.313,12.239,5.318,18.634,4.415-.9,7.87-1.932,14.81-2.954,16.594C23.308,143.848,7.514,169.672,7.678,170.2c.223.731,1.5,1.746,2.8,2.624-1.721,1.993-3.539,4.129-3.72,4.479-.869,1.695,10.47,13.566,13.57,11.462,1.964-1.333-2.143-6.741-2.909-8.254a11.142,11.142,0,0,1,1.772-2.829c3.115,1.5,3.212,1.339,3.618.941,2.406-2.347,13.142-14.262,16.1-17.612,10.749-12.167,13.333-14.8,20.322-32.678.77-3.639,1.807-14.794,2.429-18.3a.161.161,0,0,1,.318.049c-.038.3-.4,13.351-2.14,19.145C61.976,138.4,69,177.363,70.3,178.668a1.243,1.243,0,0,0,.81.219,35.442,35.442,0,0,0,4.524-.4c.58,7.5.579,7.487.937,7.759,1.471,1.122,12.708,1.692,16.392-.663.968-.614,1.485-1.484.721-2.352-1.356-1.539-6.559-2.307-7.579-2.633A13.509,13.509,0,0,1,85.3,177c3.812-.654,4.222-.723,4.348-.965.423-.856-6.382-54.037-7.823-62.806a222.232,222.232,0,0,0-6.068-24.773c.671-.295.857-.516.876-1.394a31.53,31.53,0,0,0-.416-4.3c5.3.374,8.992-1.04,11.655-5.632,2.252-3.9-.719-11.2-2.822-15.165a18.508,18.508,0,0,1,3.07-2.177c1.432,1.054,3.57,4.18,4.614,3.625C95.336,62.015,100.228,57.784,98.994,54.982ZM19.865,186.6c.34,1.041.354,1.632-.525,1.581-3.411-.195-11.043-8.151-11.924-10.607.149-.259.937-1.265,1.916-2.489,1.494,1.921,4.84,4.746,7.336,5.427C16.664,181.021,19.09,184.25,19.865,186.6Zm-2.852-6.751c-2.487-.559-6.011-3.287-7.465-5.033.439-.547.908-1.13,1.37-1.7a84.824,84.824,0,0,0,7.82,4.344A15.829,15.829,0,0,0,17.013,179.85Zm75.154,3.287c.36.178,1.131.6,1.081,1-.3,2.407-13.183,2.963-16.244,1.535-.082-.29-.245-1.557-.431-3.111,2.436.285,6.785-.135,9.009-1.428C85.961,181.489,90.037,182.084,92.167,183.137Zm-7.336-6.057a16.4,16.4,0,0,0,.526,3.348c-2.15,1.386-6.59,1.987-8.824,1.794-.145-1.226-.3-2.594-.438-3.79C78.925,178.055,82.287,177.513,84.831,177.08ZM75.349,45.665c3.619-1.254,3.99,1.165,4.106,1.078a12.242,12.242,0,0,1,.775,3.342.7.7,0,0,1-.455.569c-.344.146-.913-1.2-1.039-1.7l-.163-.644a.329.329,0,0,0-.643.137c.314,2.407.407,3.436-.031,3.759-.193.144-.283.112-.412-.017a6.034,6.034,0,0,1-.888-2.764c-.213-2.834-1.04-3.577-.721,1.281.03.445.133,1.516-.256,1.74-.242.141-.514-.312-.642-.561a5.452,5.452,0,0,1-.519-2.584.4.4,0,0,0-.617-.3,6.68,6.68,0,0,0-.958.779c-.487.55-1.872,1.3-2.265.652C70.244,49.805,72.86,46.519,75.349,45.665Zm-10.3-12.051a1.731,1.731,0,0,1-.671.159,1.544,1.544,0,0,1-1.226-.739,1.949,1.949,0,0,1-.167-.664.161.161,0,0,1,.288-.145c.045.04.768.609.82.641.14.086.852.393.94.422A.163.163,0,0,1,65.045,33.614Zm-9.266-3.285a.663.663,0,0,0-.125-.521C54.6,28.752,52.2,28.179,53.237,26.09c.306-.62.754-.623,1.295-.217.169.126.9,1.521,1.758.665a.718.718,0,0,0,.182-.417c.1-.075,1.253-.567.847-1.452-.131-.289-.21-.184.008-.284,1.5-.692.01-1.271,1.294-1.8.524-.218.579-.553.656-1.177.884.212.911-.66,1.056-.631.927.191.692.394,1.79-.443.556.127,1.241.629,1.9.371a2.317,2.317,0,0,0,.63-.471c.7.692,1.166.371,1.894-.1.492.472.774.8,1.55.6.248,1.018.758,1.025,1.425.818l.476.8c-.057.559-.233,1.266.459,1.524A41.576,41.576,0,0,1,69.5,29.6a1.122,1.122,0,0,0-.456.384c-.888.639-.3-.2-2.531-.4-.852-.072-1.387.391-2.091.581a12.8,12.8,0,0,0-2.237-.029c-1.192.181-2.279,1.142-2.927.89a3.933,3.933,0,0,0-.436-.255c-.17-.059-.252.041-.266.124a7.623,7.623,0,0,0-.054,1.6c.038.74.508.879.869,1.06.279.6.141,1.2.562,1.9.221.366.5.427.783.625a7.958,7.958,0,0,0,.945.637c.806.421,1.132,1.175,2.467,1.1-.069.505-.159,1.555-.4,3.834-.011.1,1.113,7.806-1.358,7.641-3.911-.258-7.954-7.14-8.706-10.989C53.88,36.813,55.667,31.358,55.779,30.329Zm-2.905,8.1c.807,4.232,5.091,11.383,9.446,11.667,2.754.176,2.634-4.8,2.248-7.833q.816.427,1.571.871c.311,3.242.34,8.314-2.9,8.486-4.382.274-8.159-4.46-10.494-8.174a33.658,33.658,0,0,1-2.813-5.341C50.938,38.176,51.92,38.286,52.874,38.43ZM18.494,51.178c.317-1.649,15.905-11.751,23.4-12.786a38.92,38.92,0,0,1,7.691-.308c-.092.535,5.625,14.878,13.7,14.324,3.824-.3,3.785-5.218,3.214-9.058a37.106,37.106,0,0,1,5.326,3.874,6.418,6.418,0,0,0-1.968,2.8,1.184,1.184,0,0,0,1.178,1.426C60.326,58.173,46.993,66.981,38.9,72.117a23.032,23.032,0,0,0-4.579-2.43c.575-4.308.591-4.465.546-4.606,3.548-2.316,7.888-5.84,9.669-9.177a.163.163,0,0,0-.052-.222c-.213-.131-.138.089-1.318,1.365C41.544,58.8,32.928,66.713,30.594,67.138,27.4,65.76,18.114,53.135,18.494,51.178Zm15.58,14.808c-.086.677-.255,1.89-.468,3.436a19.361,19.361,0,0,0-7.245-1.079A3.529,3.529,0,0,1,27.91,65.92a9.539,9.539,0,0,0,2.424,1.88C31.087,68.123,33.367,66.491,34.074,65.986ZM11.51,62.248c-.193-3.71,3.868-7.153,6.852-9.407,1.405,3.244,5.855,9.335,9.167,12.7a4.49,4.49,0,0,0-1.678,2.286c-.548,1.81,4.837,27.885,5.625,29.467.144.291.465.256.774.158.7-.22,3.224-1.338,3.387-.444.053.293-.393.79-.6,1-1.325,1.342-2.14,1.3-1.952,1.854a10.443,10.443,0,0,0,2.121,3.665,3.52,3.52,0,0,0,.939.489,1.5,1.5,0,0,1-2.1.31,9.683,9.683,0,0,1-2.39-3.161.4.4,0,1,0-.727.345,9.862,9.862,0,0,0,2.5,3.366.8.8,0,0,1-1.016.584c-.942-.271-2.091-2.191-2.57-2.957a.4.4,0,0,0-.679.437,19.123,19.123,0,0,1,1.534,2.961c.1.292-.342.679-1,.474-1.93-.606-2.845-6.286-3.038-6.676C26.2,98.8,12.51,81.974,11.51,62.248ZM31.345,91.676c.042.408.124.924.5,1.081a12.212,12.212,0,0,0,3.7.522c-.07.811-.146,1.691-.227,2.627a9.042,9.042,0,0,0-3.249.788c-.326-.994-1.779-7.35-3.138-13.838a8.22,8.22,0,0,1,2.909.485A54.491,54.491,0,0,0,31.345,91.676Zm1.246-8.029A8.468,8.468,0,0,1,36.676,87.4a15.883,15.883,0,0,1,.121,5.143,15.683,15.683,0,0,1-4.575-.481C31.92,91.2,32.156,87.777,32.591,83.647Zm-6.529,16.905a8.611,8.611,0,0,1-5.8-2.272,12.818,12.818,0,0,1-1.251-1.445,12.09,12.09,0,0,1,.4-6.983,100.014,100.014,0,0,0,6.53,10.191S25.939,100.014,26.062,100.552Zm49.752-13.24c-.171,1.7-23.043,4.186-25.719,4.446a21.031,21.031,0,0,0-1.478-6l24.706-14.9C74.536,77.134,76,85.327,75.814,87.312ZM87.167,76.724C84.657,81.076,81.2,82.343,76.18,82c-.236-.017.182.331-2.155-11.558l.566-.342c.673.934,3.187,4.4,4.13,5.063.759.537,2.161-.548,2.9-1.124a48.685,48.685,0,0,0,4.6-4.277.513.513,0,0,0,.129-.527c-.493-1.26-2.55-4.655-2.993-5.482a5.4,5.4,0,0,1,1.106-1.274C86.317,66.141,89.225,73.17,87.167,76.724ZM92.4,62.576c-1.593-.949-3.507-4.034-4.467-3.689-1.073.38-4.633,3.079-5.336,4.329a1.01,1.01,0,0,0-.146.743c.054.2,2.273,3.9,2.927,5.347-.976,1.016-4.77,4.793-6.155,5.066A44.562,44.562,0,0,1,75.1,69.2a.469.469,0,0,0-.625-.131l-26.717,16.1a.473.473,0,0,0-.2.578c.066-.83,3.6,9.249.479,16.751-1.067,2.568-2.522,7.01-7.916,9.729-2.907,1.465-6.947,2.43-12.656,2.361-4.306-.05-9.166-1.465-12.382-4.405a21.3,21.3,0,0,1-7.4-15.171c-.213-5.771,2.026-12.229,6.73-16.136a76.012,76.012,0,0,0,4.458,10,12.492,12.492,0,0,0,2.646,14.142,9.468,9.468,0,0,0,6.237,2.541,3.292,3.292,0,0,0,1.693,1.591c1.192.375,2.137-.413,2.054-1.253a1.652,1.652,0,0,0,2.637-.609,2.357,2.357,0,0,0,2.974-1.394c-.027-.476-.666-.571-1.089-.774a10.455,10.455,0,0,0,2.594-4.441,14.39,14.39,0,0,0-.35-9.325,13.784,13.784,0,0,0-3.237-4.6,10.013,10.013,0,0,0-6.221-2.439C28.121,78.962,27.458,75.62,27,73c8.853-1.092,13.362,3.939,13.939,3.571,11.9-7.419,44.525-27.978,47.518-29.375,1,.84,7.143,8.17,9.318,10.531A22.026,22.026,0,0,1,92.4,62.576Z"/></svg>