<svg xmlns="http://www.w3.org/2000/svg" width="460.636" height="98.311" viewBox="0 0 460.636 98.311">
  <g id="Group_23" data-name="Group 23" transform="translate(-721.369 -605.345)">
    <g id="Group_22" data-name="Group 22" transform="translate(852.668 614.208)">
      <path id="Path_31" data-name="Path 31" d="M33.124,23.966H23.4L17.559,14.3Q16.9,13.2,16.3,12.332a10.919,10.919,0,0,0-1.218-1.48A4.846,4.846,0,0,0,13.8,9.908a3.259,3.259,0,0,0-1.454-.328h-2.28V23.966H1.6V-13.609H15.018Q28.7-13.609,28.7-3.39a10.582,10.582,0,0,1-.6,3.629,10.082,10.082,0,0,1-1.7,3,10.8,10.8,0,0,1-2.66,2.306,13.716,13.716,0,0,1-3.472,1.52v.1a5.385,5.385,0,0,1,1.625.852A11.634,11.634,0,0,1,23.4,9.4a19.194,19.194,0,0,1,1.4,1.69q.668.9,1.218,1.769ZM10.065-7.268V3.187h3.668A6.082,6.082,0,0,0,18.11,1.615a5.247,5.247,0,0,0,1.677-3.957q0-4.926-5.9-4.926ZM69.678,23.966H60.454l-2.673-8.359H44.418l-2.647,8.359H32.6L46.278-13.609H56.314ZM55.843,9.109,51.807-3.521a16.457,16.457,0,0,1-.629-3.38h-.21a14.333,14.333,0,0,1-.655,3.275L46.226,9.109ZM74.368,23.966V-13.609H87.68q20.019,0,20.019,18.316,0,8.778-5.463,14.019T87.68,23.966ZM82.832-6.718V17.1h4.193q5.5,0,8.634-3.3T98.79,4.812q0-5.372-3.105-8.451T86.972-6.718ZM122.4,23.966h-8.464V-13.609H122.4Zm24.422.655a17.491,17.491,0,0,1-13.154-5.254q-5.083-5.254-5.083-13.691,0-8.909,5.162-14.412t13.678-5.5q8.044,0,13.01,5.267T165.4,4.916q0,8.857-5.149,14.281T146.821,24.621Zm.367-31.575a8.52,8.52,0,0,0-7.075,3.341,13.93,13.93,0,0,0-2.62,8.844q0,5.581,2.62,8.831a9.043,9.043,0,0,0,13.809.092Q156.49,11,156.49,5.388,156.49-.455,154-3.7A8.116,8.116,0,0,0,147.188-6.954Zm50.651,29.348a22.039,22.039,0,0,1-10.377,2.2q-8.018,0-12.84-5.162T169.8,5.886q0-9.014,5.424-14.569a18.41,18.41,0,0,1,13.757-5.555,22.056,22.056,0,0,1,8.857,1.546V-8a17.961,17.961,0,0,0-8.909-2.253,13.671,13.671,0,0,0-10.494,4.324q-4.022,4.324-4.022,11.556,0,6.865,3.76,10.94a12.8,12.8,0,0,0,9.866,4.075,18.508,18.508,0,0,0,9.8-2.516Zm21.356,2.2q-7.992,0-12.8-5.267t-4.808-13.7q0-9.066,4.9-14.464t13.337-5.4A16.122,16.122,0,0,1,232.362-9q4.756,5.241,4.756,13.7,0,9.2-4.874,14.543T219.194,24.6Zm.314-34.85a12.114,12.114,0,0,0-9.617,4.271Q206.2-1.713,206.2,5.231t3.6,11.176a11.751,11.751,0,0,0,9.394,4.232,12.337,12.337,0,0,0,9.748-4.035q3.564-4.035,3.564-11.294,0-7.442-3.459-11.5A11.86,11.86,0,0,0,219.509-10.255Zm25,34.222V-13.609h10.377q19.862,0,19.862,18.316,0,8.7-5.516,13.979t-14.766,5.28Zm4.4-33.593v29.61h5.608q7.389,0,11.5-3.957t4.114-11.215q0-14.438-15.355-14.438Zm53.14,33.593H282.135V-13.609h19.076v3.983H286.537v12.5H300.11V6.829H286.537V19.983h15.512Zm5.476-1.52V17.258a10.076,10.076,0,0,0,2.136,1.415,17.3,17.3,0,0,0,2.62,1.061,20.857,20.857,0,0,0,2.764.668,15.413,15.413,0,0,0,2.568.236q4.062,0,6.066-1.507a5.1,5.1,0,0,0,2-4.337,5.092,5.092,0,0,0-.668-2.647,7.528,7.528,0,0,0-1.847-2.057,18.331,18.331,0,0,0-2.791-1.782q-1.611-.852-3.472-1.795-1.965-1-3.668-2.018a15.893,15.893,0,0,1-2.961-2.253A9.4,9.4,0,0,1,308.3-.547a8.638,8.638,0,0,1-.721-3.655,8.6,8.6,0,0,1,1.127-4.468,9.665,9.665,0,0,1,2.961-3.131,13.424,13.424,0,0,1,4.179-1.834,19.137,19.137,0,0,1,4.782-.6q5.555,0,8.1,1.336v4.952a14.677,14.677,0,0,0-8.542-2.306,14.05,14.05,0,0,0-2.882.3,8.141,8.141,0,0,0-2.568.983A5.688,5.688,0,0,0,312.9-7.216a4.66,4.66,0,0,0-.707,2.62,5.394,5.394,0,0,0,.537,2.489,6.1,6.1,0,0,0,1.585,1.913,15.789,15.789,0,0,0,2.555,1.677q1.507.812,3.472,1.782,2.018,1,3.826,2.1A17.487,17.487,0,0,1,327.336,7.8,10.83,10.83,0,0,1,329.5,10.76a8.323,8.323,0,0,1,.8,3.721,9.436,9.436,0,0,1-1.087,4.7,8.924,8.924,0,0,1-2.935,3.131,12.817,12.817,0,0,1-4.258,1.743,23.319,23.319,0,0,1-5.083.537,20.715,20.715,0,0,1-2.2-.144q-1.31-.144-2.673-.419a21.808,21.808,0,0,1-2.581-.681A8.031,8.031,0,0,1,307.526,22.446Z" transform="translate(-0.96 14.238)"/>
      <path id="Path_32" data-name="Path 32" d="M11.323-7.574a3.868,3.868,0,0,0-1.93-.478q-3.046,0-3.046,3.842v2.8H10.6V1.067H6.347V16.72H3.461V1.067H.362V-1.412h3.1V-4.352A6.108,6.108,0,0,1,5.108-8.858a5.559,5.559,0,0,1,4.108-1.656,5.691,5.691,0,0,1,2.107.319Zm11.846,9.1a3.551,3.551,0,0,0-2.2-.584A3.706,3.706,0,0,0,17.866,2.7a8.1,8.1,0,0,0-1.248,4.781V16.72h-2.9V-1.412h2.9V2.324h.071A6.332,6.332,0,0,1,18.583-.66a4.32,4.32,0,0,1,2.851-1.071,4.741,4.741,0,0,1,1.735.248ZM40.894,8.38h-12.8a6.782,6.782,0,0,0,1.629,4.675A5.616,5.616,0,0,0,34.006,14.7a8.909,8.909,0,0,0,5.631-2.019V15.41a10.524,10.524,0,0,1-6.321,1.735,7.664,7.664,0,0,1-6.038-2.47,10.11,10.11,0,0,1-2.2-6.95,9.915,9.915,0,0,1,2.4-6.9,7.693,7.693,0,0,1,5.958-2.665,6.817,6.817,0,0,1,5.507,2.3,9.6,9.6,0,0,1,1.948,6.392ZM37.919,5.919a5.908,5.908,0,0,0-1.213-3.913,4.133,4.133,0,0,0-3.32-1.4A4.691,4.691,0,0,0,29.9,2.076a6.67,6.67,0,0,0-1.771,3.842ZM59.859,8.38h-12.8a6.782,6.782,0,0,0,1.629,4.675A5.616,5.616,0,0,0,52.971,14.7,8.909,8.909,0,0,0,58.6,12.683V15.41a10.524,10.524,0,0,1-6.321,1.735,7.664,7.664,0,0,1-6.038-2.47,10.11,10.11,0,0,1-2.2-6.95,9.915,9.915,0,0,1,2.4-6.9A7.693,7.693,0,0,1,52.4-1.837a6.817,6.817,0,0,1,5.507,2.3,9.6,9.6,0,0,1,1.948,6.392ZM56.884,5.919a5.908,5.908,0,0,0-1.213-3.913,4.133,4.133,0,0,0-3.32-1.4,4.691,4.691,0,0,0-3.488,1.47,6.67,6.67,0,0,0-1.771,3.842ZM73.706,1.527a3.551,3.551,0,0,0-2.2-.584A3.706,3.706,0,0,0,68.4,2.7a8.1,8.1,0,0,0-1.248,4.781V16.72h-2.9V-1.412h2.9V2.324h.071A6.332,6.332,0,0,1,69.12-.66,4.32,4.32,0,0,1,71.97-1.731a4.741,4.741,0,0,1,1.735.248ZM89.837,16.72h-2.9V13.887h-.071a6.08,6.08,0,0,1-5.578,3.258,5.961,5.961,0,0,1-4.241-1.434A4.969,4.969,0,0,1,75.512,11.9q0-5.082,5.985-5.914l5.436-.761Q86.933.606,83.2.606a8.926,8.926,0,0,0-5.914,2.231V-.137a11.237,11.237,0,0,1,6.162-1.7q6.392,0,6.392,6.764Zm-2.9-9.172-4.374.6a7.1,7.1,0,0,0-3.046,1,2.885,2.885,0,0,0-1.027,2.541,2.768,2.768,0,0,0,.947,2.169,3.661,3.661,0,0,0,2.523.841,4.661,4.661,0,0,0,3.568-1.514,5.409,5.409,0,0,0,1.408-3.834Zm23.852,9.172h-2.9V13.639h-.071a6.7,6.7,0,0,1-6.233,3.506,6.772,6.772,0,0,1-5.463-2.435,9.988,9.988,0,0,1-2.045-6.631A10.866,10.866,0,0,1,96.336.872a7.475,7.475,0,0,1,6.038-2.709A5.812,5.812,0,0,1,107.81,1.1h.071V-10.124h2.9Zm-2.9-8.2V5.848a5.187,5.187,0,0,0-1.452-3.719A4.87,4.87,0,0,0,102.746.606a5.014,5.014,0,0,0-4.179,1.948,8.535,8.535,0,0,0-1.523,5.383A7.677,7.677,0,0,0,98.5,12.886a4.774,4.774,0,0,0,3.922,1.815,4.96,4.96,0,0,0,3.94-1.753A6.531,6.531,0,0,0,107.881,8.522Zm10.27-14.538a1.84,1.84,0,0,1-1.328-.531,1.793,1.793,0,0,1-.549-1.346,1.822,1.822,0,0,1,.549-1.355,1.824,1.824,0,0,1,1.328-.54,1.875,1.875,0,0,1,1.355.54,1.807,1.807,0,0,1,.558,1.355,1.8,1.8,0,0,1-.558,1.328A1.859,1.859,0,0,1,118.151-6.016Zm1.417,22.736h-2.9V-1.412h2.9Zm13.458.425a8.411,8.411,0,0,1-6.419-2.541,9.412,9.412,0,0,1-2.4-6.738A9.8,9.8,0,0,1,126.7.73a8.976,8.976,0,0,1,6.746-2.568,8.132,8.132,0,0,1,6.33,2.5,9.9,9.9,0,0,1,2.275,6.924,9.741,9.741,0,0,1-2.452,6.95A8.593,8.593,0,0,1,133.025,17.145ZM133.238.606a5.524,5.524,0,0,0-4.427,1.9,7.818,7.818,0,0,0-1.629,5.25,7.393,7.393,0,0,0,1.647,5.082,5.6,5.6,0,0,0,4.409,1.859,5.309,5.309,0,0,0,4.329-1.824,7.915,7.915,0,0,0,1.514-5.188,8.05,8.05,0,0,0-1.514-5.241A5.285,5.285,0,0,0,133.238.606Zm25.817,15.281a9.436,9.436,0,0,1-4.958,1.257,8.209,8.209,0,0,1-6.26-2.523,9.145,9.145,0,0,1-2.382-6.543,10.053,10.053,0,0,1,2.568-7.2,8.982,8.982,0,0,1,6.853-2.718,9.539,9.539,0,0,1,4.214.885V2.023A7.384,7.384,0,0,0,154.77.606,5.839,5.839,0,0,0,150.21,2.6a7.559,7.559,0,0,0-1.78,5.232A7.2,7.2,0,0,0,150.1,12.86a5.768,5.768,0,0,0,4.489,1.842,7.278,7.278,0,0,0,4.462-1.576Zm11.97,1.257a8.411,8.411,0,0,1-6.419-2.541,9.412,9.412,0,0,1-2.4-6.738A9.8,9.8,0,0,1,164.7.73a8.976,8.976,0,0,1,6.746-2.568,8.132,8.132,0,0,1,6.33,2.5,9.9,9.9,0,0,1,2.275,6.924,9.741,9.741,0,0,1-2.452,6.95A8.593,8.593,0,0,1,171.025,17.145ZM171.237.606a5.524,5.524,0,0,0-4.427,1.9,7.818,7.818,0,0,0-1.629,5.25,7.394,7.394,0,0,0,1.647,5.082,5.6,5.6,0,0,0,4.409,1.859,5.309,5.309,0,0,0,4.329-1.824,7.915,7.915,0,0,0,1.514-5.188,8.05,8.05,0,0,0-1.514-5.241A5.285,5.285,0,0,0,171.237.606ZM200.171,16.72h-2.9V13.639H197.2a6.7,6.7,0,0,1-6.233,3.506A6.772,6.772,0,0,1,185.5,14.71a9.988,9.988,0,0,1-2.045-6.631A10.866,10.866,0,0,1,185.722.872a7.476,7.476,0,0,1,6.038-2.709A5.812,5.812,0,0,1,197.2,1.1h.071V-10.124h2.9Zm-2.9-8.2V5.848a5.187,5.187,0,0,0-1.452-3.719A4.87,4.87,0,0,0,192.132.606a5.015,5.015,0,0,0-4.179,1.948,8.535,8.535,0,0,0-1.523,5.383,7.676,7.676,0,0,0,1.461,4.949,4.775,4.775,0,0,0,3.922,1.815,4.96,4.96,0,0,0,3.94-1.753A6.531,6.531,0,0,0,197.267,8.522Zm23.356-.142h-12.8a6.782,6.782,0,0,0,1.629,4.675,5.616,5.616,0,0,0,4.285,1.647,8.909,8.909,0,0,0,5.631-2.019V15.41a10.524,10.524,0,0,1-6.321,1.735,7.664,7.664,0,0,1-6.038-2.47,10.11,10.11,0,0,1-2.2-6.95,9.915,9.915,0,0,1,2.4-6.9,7.693,7.693,0,0,1,5.958-2.665,6.817,6.817,0,0,1,5.507,2.3,9.6,9.6,0,0,1,1.948,6.392Zm-2.975-2.461a5.909,5.909,0,0,0-1.213-3.913,4.133,4.133,0,0,0-3.32-1.4,4.691,4.691,0,0,0-3.488,1.47,6.669,6.669,0,0,0-1.771,3.842Zm6.268,10.146V12.948A8.594,8.594,0,0,0,229.14,14.7q3.825,0,3.825-2.55a2.212,2.212,0,0,0-.328-1.231,3.265,3.265,0,0,0-.885-.894,6.815,6.815,0,0,0-1.31-.7q-.753-.31-1.62-.646a20.864,20.864,0,0,1-2.116-.965,6.392,6.392,0,0,1-1.523-1.1,4.084,4.084,0,0,1-.921-1.39,4.917,4.917,0,0,1-.31-1.824,4.332,4.332,0,0,1,.584-2.258A5.182,5.182,0,0,1,226.094-.5a7.266,7.266,0,0,1,2.222-1,9.857,9.857,0,0,1,2.576-.336,10.4,10.4,0,0,1,4.214.815V1.917a8.213,8.213,0,0,0-4.6-1.31,5.382,5.382,0,0,0-1.47.186,3.6,3.6,0,0,0-1.124.522,2.413,2.413,0,0,0-.726.806,2.122,2.122,0,0,0-.257,1.036,2.484,2.484,0,0,0,.257,1.186,2.612,2.612,0,0,0,.753.85,5.753,5.753,0,0,0,1.2.673q.708.3,1.611.655a22.422,22.422,0,0,1,2.16.947,7.41,7.41,0,0,1,1.629,1.1,4.29,4.29,0,0,1,1.036,1.408,4.541,4.541,0,0,1,.363,1.895,4.467,4.467,0,0,1-.593,2.337,5.083,5.083,0,0,1-1.585,1.647,7.259,7.259,0,0,1-2.284.974,11.278,11.278,0,0,1-2.709.319A10.287,10.287,0,0,1,223.916,16.065Zm17.495,1.045a1.88,1.88,0,0,1-1.39-.584,1.923,1.923,0,0,1-.575-1.4,1.953,1.953,0,0,1,.575-1.408,1.866,1.866,0,0,1,1.39-.593,1.915,1.915,0,0,1,1.417.593,1.938,1.938,0,0,1,.584,1.408,1.909,1.909,0,0,1-.584,1.4A1.929,1.929,0,0,1,241.411,17.11Zm19.212-1.222a9.436,9.436,0,0,1-4.958,1.257,8.209,8.209,0,0,1-6.259-2.523,9.144,9.144,0,0,1-2.382-6.543,10.053,10.053,0,0,1,2.568-7.2,8.982,8.982,0,0,1,6.853-2.718,9.539,9.539,0,0,1,4.214.885V2.023A7.384,7.384,0,0,0,256.338.606a5.839,5.839,0,0,0-4.56,1.992A7.559,7.559,0,0,0,250,7.831a7.2,7.2,0,0,0,1.673,5.029,5.768,5.768,0,0,0,4.489,1.842,7.278,7.278,0,0,0,4.462-1.576Zm11.97,1.257a8.41,8.41,0,0,1-6.419-2.541,9.412,9.412,0,0,1-2.4-6.738,9.8,9.8,0,0,1,2.5-7.136,8.976,8.976,0,0,1,6.746-2.568,8.132,8.132,0,0,1,6.33,2.5,9.9,9.9,0,0,1,2.275,6.924,9.741,9.741,0,0,1-2.452,6.95A8.593,8.593,0,0,1,272.594,17.145ZM272.806.606a5.524,5.524,0,0,0-4.427,1.9,7.818,7.818,0,0,0-1.629,5.25,7.394,7.394,0,0,0,1.647,5.082,5.6,5.6,0,0,0,4.409,1.859,5.309,5.309,0,0,0,4.329-1.824,7.915,7.915,0,0,0,1.514-5.188,8.05,8.05,0,0,0-1.514-5.241A5.285,5.285,0,0,0,272.806.606Zm14.467,16.5a1.88,1.88,0,0,1-1.39-.584,1.923,1.923,0,0,1-.575-1.4,1.953,1.953,0,0,1,.575-1.408,1.866,1.866,0,0,1,1.39-.593,1.915,1.915,0,0,1,1.417.593,1.938,1.938,0,0,1,.584,1.408,1.909,1.909,0,0,1-.584,1.4A1.929,1.929,0,0,1,287.273,17.11Zm21.514-.39h-2.9V13.852h-.071a5.963,5.963,0,0,1-5.6,3.294q-6.481,0-6.481-7.72V-1.412h2.886V8.964q0,5.737,4.391,5.737a4.443,4.443,0,0,0,3.5-1.567,6,6,0,0,0,1.372-4.1V-1.412h2.9Zm20.912,0h-4.073l-8-8.712h-.071V16.72h-2.9V-10.124h2.9V6.893h.071l7.614-8.3h3.807l-8.411,8.747Z" transform="translate(-0.362 63.439)" opacity="0.79"/>
    </g>
    <g id="unlock" transform="translate(721.369 605.345)">
      <ellipse id="Ellipse_7" data-name="Ellipse 7" cx="11.649" cy="13.314" rx="11.649" ry="13.314" transform="translate(73.224 71.171)" fill="#1f7efb"/>
      <ellipse id="Ellipse_8" data-name="Ellipse 8" cx="13.314" cy="11.649" rx="13.314" ry="11.649" transform="translate(0 37.888)" fill="#1f7efb"/>
      <path id="Path_33" data-name="Path 33" d="M89.093,37.254V24.188A12.29,12.29,0,1,0,74.121,9.216h-14.6a12.29,12.29,0,0,0-23.8,0H24.188a12.288,12.288,0,1,0,0,6.144h11.53a12.291,12.291,0,0,0,23.8,0h14.6a12.335,12.335,0,0,0,8.828,8.828V37.254a12.335,12.335,0,0,0-8.828,8.828H61.055A12.29,12.29,0,1,0,46.083,61.054V74.121a12.335,12.335,0,0,0-8.828,8.828H24.189a12.289,12.289,0,1,0,0,6.144H37.255A12.29,12.29,0,1,0,52.227,74.121V61.054a12.335,12.335,0,0,0,8.828-8.828H74.122A12.29,12.29,0,1,0,89.093,37.254Z" transform="translate(0 0.001)" fill="#1f7efb"/>
    </g>
  </g>
</svg>
