<svg xmlns="http://www.w3.org/2000/svg" width="214.597" height="51.992" viewBox="0 0 214.597 51.992">
  <g id="paypal-method" transform="translate(-0.002)">
    <path id="Path_111" data-name="Path 111" d="M179.42,386.87h14.665c7.874,0,10.838,3.986,10.38,9.842-.757,9.668-6.6,15.017-14.354,15.017H186.2c-1.064,0-1.779.7-2.067,2.612l-1.662,11.091c-.11.719-.488,1.136-1.056,1.192H172.2c-.867,0-1.173-.662-.946-2.1l5.618-35.556A2.235,2.235,0,0,1,179.42,386.87Z" transform="translate(-160.693 -374.632)" fill="#009ee3" fill-rule="evenodd"/>
    <path id="Path_112" data-name="Path 112" d="M329.323,385.13c4.948,0,9.513,2.684,8.888,9.373-.757,7.949-5.016,12.348-11.735,12.367H320.6c-.844,0-1.253.689-1.473,2.1L318,416.189c-.17,1.09-.731,1.628-1.556,1.628h-5.462c-.871,0-1.173-.556-.98-1.8l4.508-28.932c.223-1.423.757-1.953,1.73-1.953h13.075Zm-8.9,15.49h4.448c2.782-.106,4.63-2.033,4.815-5.508a3.36,3.36,0,0,0-3.642-3.672l-4.187.019-1.435,9.161ZM353.061,415.6c.5-.454,1.007-.689.935-.129l-.178,1.34c-.091.7.185,1.071.837,1.071h4.853c.818,0,1.215-.329,1.416-1.594l2.99-18.768c.151-.943-.079-1.4-.795-1.4h-5.337c-.481,0-.715.269-.84,1l-.2,1.155c-.1.6-.379.708-.636.1-.9-2.143-3.214-3.1-6.435-3.028-7.484.155-12.53,5.837-13.071,13.12-.416,5.633,3.619,10.058,8.941,10.058a9.6,9.6,0,0,0,7.533-2.915h0ZM349,412.714a4.877,4.877,0,0,1-5-5.72,6.967,6.967,0,0,1,6.7-5.72,4.877,4.877,0,0,1,5,5.72,6.963,6.963,0,0,1-6.7,5.72Zm24.416-16.656H368.49c-1.014,0-1.427.757-1.105,1.688l6.11,17.89L367.5,424.15c-.5.712-.114,1.359.594,1.359h5.53a1.692,1.692,0,0,0,1.643-.806l18.791-26.952c.579-.829.307-1.7-.644-1.7h-5.235c-.9,0-1.257.356-1.772,1.1l-7.836,11.356-3.5-11.383a1.5,1.5,0,0,0-1.658-1.067Z" transform="translate(-246.929 -373.55)" fill="#113984" fill-rule="evenodd"/>
    <path id="Path_113" data-name="Path 113" d="M551.989,385.117c4.948,0,9.513,2.684,8.888,9.373-.757,7.949-5.016,12.348-11.735,12.367h-5.867c-.844,0-1.253.689-1.473,2.1l-1.136,7.219c-.17,1.09-.731,1.628-1.556,1.628h-5.462c-.871,0-1.173-.556-.98-1.8l4.516-28.939c.223-1.423.757-1.953,1.73-1.953h13.075Zm-8.9,15.49h4.448c2.782-.106,4.63-2.033,4.815-5.508a3.36,3.36,0,0,0-3.641-3.672l-4.187.019-1.435,9.161Zm32.634,14.983c.5-.454,1.007-.689.935-.129l-.178,1.34c-.091.7.185,1.071.837,1.071h4.853c.818,0,1.215-.329,1.416-1.594l2.99-18.768c.151-.943-.079-1.4-.795-1.4h-5.33c-.481,0-.715.269-.84,1l-.2,1.155c-.1.6-.379.708-.636.1-.9-2.143-3.214-3.1-6.435-3.028-7.484.155-12.53,5.837-13.071,13.12-.416,5.633,3.619,10.058,8.941,10.058a9.6,9.6,0,0,0,7.533-2.915h0Zm-4.062-2.888a4.877,4.877,0,0,1-5-5.72,6.967,6.967,0,0,1,6.7-5.72,4.877,4.877,0,0,1,5,5.72,6.966,6.966,0,0,1-6.7,5.72Zm22.383,5.2h-5.6a.662.662,0,0,1-.685-.757l4.921-31.177a.965.965,0,0,1,.931-.757h5.6a.662.662,0,0,1,.685.757l-4.921,31.177a.965.965,0,0,1-.931.765Z" transform="translate(-385.309 -373.538)" fill="#009ee3" fill-rule="evenodd"/>
    <path id="Path_114" data-name="Path 114" d="M153.035,354.54h14.68c4.134,0,9.04.132,12.318,3.028a9.95,9.95,0,0,1,3.078,8.328c-.9,11.209-7.6,17.489-16.6,17.489h-7.238c-1.234,0-2.048.818-2.4,3.028l-2.021,12.87c-.132.833-.492,1.325-1.136,1.385h-9.058c-1,0-1.359-.757-1.1-2.43l6.511-41.253A2.605,2.605,0,0,1,153.035,354.54Z" transform="translate(-143.48 -354.54)" fill="#113984" fill-rule="evenodd"/>
    <path id="Path_115" data-name="Path 115" d="M179.43,405.193l2.563-16.228a2.243,2.243,0,0,1,2.555-2.1h14.665a14.3,14.3,0,0,1,5.928,1.079c-1.473,9.978-7.927,15.52-16.376,15.52h-7.226A2.135,2.135,0,0,0,179.43,405.193Z" transform="translate(-165.82 -374.626)" fill="#172c70" fill-rule="evenodd"/>
  </g>
</svg>