<svg id="_5a10aaa4d85f4b0001a5360b_google-reviews-stars" data-name="5a10aaa4d85f4b0001a5360b_google-reviews-stars" xmlns="http://www.w3.org/2000/svg" width="126.38" height="22.47" viewBox="0 0 126.38 22.47">
  <path id="Path_1" data-name="Path 1" d="M24,8.67H14.91L12.09,0,9.23,8.67H0l7.47,5.26-2.8,8.54,7.37-5.36,7.4,5.3-2.81-8.52Z" fill="#ededed"/>
  <path id="Path_2" data-name="Path 2" d="M49.59,8.67H40.5L37.68,0,34.82,8.67H25.59l7.48,5.26-2.81,8.54,7.37-5.36,7.4,5.3-2.8-8.52Z" fill="#ededed"/>
  <path id="Path_3" data-name="Path 3" d="M75.19,8.67h-9.1L63.28,0,60.41,8.67H51.19l7.47,5.26-2.8,8.54,7.36-5.36,7.41,5.3-2.81-8.52Z" fill="#ededed"/>
  <path id="Path_4" data-name="Path 4" d="M100.78,8.67H91.69L88.87,0,86.01,8.67H76.78l7.47,5.26-2.8,8.54,7.37-5.36,7.4,5.3-2.81-8.52Z" fill="#ededed"/>
  <path id="Path_5" data-name="Path 5" d="M126.38,8.67h-9.1L114.47,0,111.6,8.67h-9.22l7.47,5.26-2.81,8.54,7.37-5.36,7.4,5.3-2.8-8.52Z" fill="#ededed"/>
</svg>
