<svg id="Trustpilot_ratings_5star-RGB" xmlns="http://www.w3.org/2000/svg" width="88.381" height="16" viewBox="0 0 88.381 16">
  <g id="Group_1" data-name="Group 1">
    <rect id="Rectangle-path" width="16" height="16" fill="#00b67a"/>
    <rect id="Rectangle-path-2" data-name="Rectangle-path" width="16" height="16" transform="translate(18.286)" fill="#00b67a"/>
    <rect id="Rectangle-path-3" data-name="Rectangle-path" width="16" height="16" transform="translate(35.81)" fill="#00b67a"/>
    <rect id="Rectangle-path-4" data-name="Rectangle-path" width="16.762" height="16" transform="translate(53.333)" fill="#00b67a"/>
    <rect id="Rectangle-path-5" data-name="Rectangle-path" width="16.762" height="16" transform="translate(71.619)" fill="#00b67a"/>
    <path id="Shape" d="M20.168,24.525l2.506-.635,1.047,3.227Zm5.768-4.171H21.524L20.168,16.2l-1.356,4.154H14.4l3.57,2.575-1.356,4.154,3.57-2.575,2.2-1.579,3.553-2.575Z" transform="translate(-11.928 -13.419)" fill="#fff"/>
    <path id="Shape-2" data-name="Shape" d="M124.168,24.525l2.506-.635,1.047,3.227Zm5.768-4.171h-4.412L124.168,16.2l-1.356,4.154H118.4l3.571,2.575-1.356,4.154,3.57-2.575,2.2-1.579,3.553-2.575Z" transform="translate(-98.076 -13.419)" fill="#fff"/>
    <path id="Shape-3" data-name="Shape" d="M228.168,24.525l2.506-.635,1.047,3.227Zm5.768-4.171h-4.412L228.168,16.2l-1.356,4.154H222.4l3.57,2.575-1.356,4.154,3.57-2.575,2.2-1.579,3.553-2.575Z" transform="translate(-184.223 -13.419)" fill="#fff"/>
    <path id="Shape-4" data-name="Shape" d="M332.168,24.525l2.506-.635,1.047,3.227Zm5.768-4.171h-4.412L332.168,16.2l-1.356,4.154H326.4l3.57,2.575-1.356,4.154,3.57-2.575,2.2-1.579,3.553-2.575Z" transform="translate(-270.371 -13.419)" fill="#fff"/>
    <path id="Shape-5" data-name="Shape" d="M436.168,24.525l2.506-.635,1.047,3.227Zm5.768-4.171h-4.412L436.168,16.2l-1.356,4.154H430.4l3.57,2.575-1.356,4.154,3.57-2.575,2.2-1.579,3.553-2.575Z" transform="translate(-356.519 -13.419)" fill="#fff"/>
  </g>
</svg>
