<svg id="Layer_1" data-name="Layer 1" xmlns="http://www.w3.org/2000/svg" viewBox="0 0 126.38 22.47"><defs><style>.cls-1{fill:#e7711b;}</style></defs><title>google-reviews-stars</title><polygon class="cls-1" points="24 8.67 14.91 8.67 12.09 0 9.23 8.67 0 8.67 7.47 13.93 4.67 22.47 12.04 17.11 19.44 22.41 16.63 13.89 24 8.67"/><polygon class="cls-1" points="49.59 8.67 40.5 8.67 37.68 0 34.82 8.67 25.59 8.67 33.07 13.93 30.26 22.47 37.63 17.11 45.03 22.41 42.23 13.89 49.59 8.67"/><polygon class="cls-1" points="75.19 8.67 66.09 8.67 63.28 0 60.41 8.67 51.19 8.67 58.66 13.93 55.86 22.47 63.22 17.11 70.63 22.41 67.82 13.89 75.19 8.67"/><polygon class="cls-1" points="100.78 8.67 91.69 8.67 88.87 0 86.01 8.67 76.78 8.67 84.25 13.93 81.45 22.47 88.82 17.11 96.22 22.41 93.41 13.89 100.78 8.67"/><polygon class="cls-1" points="126.38 8.67 117.28 8.67 114.47 0 111.6 8.67 102.38 8.67 109.85 13.93 107.04 22.47 114.41 17.11 121.81 22.41 119.01 13.89 126.38 8.67"/></svg>