<svg xmlns="http://www.w3.org/2000/svg" width="94.332" height="23.213" viewBox="0 0 94.332 23.213">
  <g id="Group_37" data-name="Group 37" transform="translate(-836 270)">
    <g id="Group_36" data-name="Group 36" transform="translate(836 -270)">
      <g id="Group_35" data-name="Group 35" transform="translate(0)">
        <path id="Path_127" data-name="Path 127" d="M44.157,257.094H35.119L32.337,248.5l-2.8,8.594-9.038-.017,7.31,5.318-2.8,8.594,7.31-5.318,7.31,5.318-2.782-8.594Z" transform="translate(-20.5 -248.5)" fill="#00b67a"/>
        <path id="Path_128" data-name="Path 128" d="M97.536,334.843l-.626-1.943L92.4,336.176Z" transform="translate(-80.563 -319.005)" fill="#005128"/>
      </g>
    </g>
    <path id="Path_132" data-name="Path 132" d="M178.116,300.7h9.473v1.718h-3.73V312.1h-2.045v-9.682H178.1Zm9.068,3.146h1.748v1.6h.031a1.984,1.984,0,0,1,.328-.654,3.131,3.131,0,0,1,1.327-1,2.231,2.231,0,0,1,.827-.167c.218,0,.375.015.453.015a1.4,1.4,0,0,0,.25.03v1.748a3.233,3.233,0,0,0-.406-.061,3.662,3.662,0,0,0-.406-.03,2.217,2.217,0,0,0-.889.182,2.252,2.252,0,0,0-.734.532,2.862,2.862,0,0,0-.5.882,3.63,3.63,0,0,0-.187,1.216v3.921h-1.873ZM200.73,312.1h-1.842v-1.155h-.031a2.582,2.582,0,0,1-1.03,1,2.774,2.774,0,0,1-1.389.38,3.14,3.14,0,0,1-2.419-.806,3.462,3.462,0,0,1-.749-2.432v-5.244h1.873v5.061a2.118,2.118,0,0,0,.437,1.535,1.562,1.562,0,0,0,1.2.456,2.355,2.355,0,0,0,.983-.182,1.692,1.692,0,0,0,.64-.471,1.83,1.83,0,0,0,.359-.714,3.291,3.291,0,0,0,.109-.9v-4.788h1.873V312.1Zm3.184-2.645a1.426,1.426,0,0,0,.624,1.125,2.509,2.509,0,0,0,1.3.319,4.408,4.408,0,0,0,.593-.046,2.671,2.671,0,0,0,.624-.152,1.1,1.1,0,0,0,.484-.334.765.765,0,0,0,.172-.563.808.808,0,0,0-.265-.578,2.224,2.224,0,0,0-.624-.365,5.53,5.53,0,0,0-.874-.228c-.328-.061-.656-.137-1-.213s-.687-.167-1.014-.274a2.934,2.934,0,0,1-.874-.441,1.909,1.909,0,0,1-.609-.7,2.137,2.137,0,0,1-.234-1.049,1.765,1.765,0,0,1,.343-1.125,2.471,2.471,0,0,1,.858-.73,3.967,3.967,0,0,1,1.155-.4,6.791,6.791,0,0,1,1.2-.106,5.5,5.5,0,0,1,1.249.137,3.2,3.2,0,0,1,1.077.441,2.44,2.44,0,0,1,.8.79,2.69,2.69,0,0,1,.406,1.17h-1.951a1.17,1.17,0,0,0-.609-.882,2.571,2.571,0,0,0-1.108-.228c-.125,0-.3.015-.468.03a2.819,2.819,0,0,0-.515.122,1.223,1.223,0,0,0-.406.258.6.6,0,0,0-.172.441.66.66,0,0,0,.234.532,2.136,2.136,0,0,0,.624.35,5.53,5.53,0,0,0,.874.228c.328.061.671.137,1.014.213s.671.167,1,.274a2.76,2.76,0,0,1,.874.441,2.213,2.213,0,0,1,.624.684,2.056,2.056,0,0,1,.234,1.018,2.172,2.172,0,0,1-.343,1.246,2.886,2.886,0,0,1-.889.836,4.479,4.479,0,0,1-1.217.471,6.7,6.7,0,0,1-1.327.152,5.731,5.731,0,0,1-1.483-.182,3.823,3.823,0,0,1-1.185-.532,2.57,2.57,0,0,1-.78-.9,2.866,2.866,0,0,1-.313-1.277H203.9v.015Zm6.165-5.609h1.42v-2.493h1.873v2.478h1.686v1.353h-1.686v4.408a4.555,4.555,0,0,0,.031.5,1.033,1.033,0,0,0,.109.349.607.607,0,0,0,.265.213,1.426,1.426,0,0,0,.5.076,3.358,3.358,0,0,0,.39-.015,3.472,3.472,0,0,0,.39-.061v1.413c-.2.03-.406.046-.609.061a3.984,3.984,0,0,1-.609.03,4.138,4.138,0,0,1-1.185-.137,1.714,1.714,0,0,1-.7-.4,1.4,1.4,0,0,1-.343-.654,5.057,5.057,0,0,1-.109-.912V305.2h-1.42Zm6.289,0h1.763v1.125h.031a2.292,2.292,0,0,1,1.092-1.034,3.619,3.619,0,0,1,1.529-.319,3.934,3.934,0,0,1,1.749.35,3.268,3.268,0,0,1,1.233.942,3.894,3.894,0,0,1,.734,1.4,5.986,5.986,0,0,1,.031,3.313A4.421,4.421,0,0,1,223.86,311a3.3,3.3,0,0,1-1.139.958,3.443,3.443,0,0,1-1.623.365,4.891,4.891,0,0,1-.812-.076,3.524,3.524,0,0,1-.78-.228,2.811,2.811,0,0,1-.687-.41,2.337,2.337,0,0,1-.531-.578h-.031v4.119h-1.873V303.846Zm6.539,4.134a3.615,3.615,0,0,0-.156-1.079,2.722,2.722,0,0,0-.453-.927,2.473,2.473,0,0,0-.734-.654,2.039,2.039,0,0,0-1.014-.243,2.1,2.1,0,0,0-1.779.79,3.53,3.53,0,0,0-.593,2.128,3.84,3.84,0,0,0,.156,1.155,2.548,2.548,0,0,0,.468.912,2.218,2.218,0,0,0,.749.608,2.163,2.163,0,0,0,1.014.228,2.121,2.121,0,0,0,1.077-.258,2.491,2.491,0,0,0,.734-.654,2.639,2.639,0,0,0,.406-.927,5.089,5.089,0,0,0,.125-1.079Zm3.293-7.28h1.873v1.718H226.2Zm0,3.146h1.873V312.1H226.2Zm3.545-3.146h1.873v11.4h-1.873Zm7.585,11.627a4.565,4.565,0,0,1-1.811-.334,4.113,4.113,0,0,1-1.342-.9,3.883,3.883,0,0,1-.827-1.383,5.276,5.276,0,0,1-.3-1.748,4.821,4.821,0,0,1,.3-1.733,4.02,4.02,0,0,1,.827-1.383,3.747,3.747,0,0,1,1.342-.9,4.85,4.85,0,0,1,1.811-.334,4.564,4.564,0,0,1,1.811.334,3.672,3.672,0,0,1,2.169,2.28,5.185,5.185,0,0,1,.3,1.733,4.845,4.845,0,0,1-.3,1.748,4.278,4.278,0,0,1-.827,1.383,3.748,3.748,0,0,1-1.342.9,4.79,4.79,0,0,1-1.811.334Zm0-1.444a2.205,2.205,0,0,0,1.077-.258,2.24,2.24,0,0,0,.749-.669,2.832,2.832,0,0,0,.437-.927,4.042,4.042,0,0,0,0-2.113,2.693,2.693,0,0,0-.437-.927,2.351,2.351,0,0,0-.749-.654,2.249,2.249,0,0,0-1.077-.258,2.2,2.2,0,0,0-1.077.258,2.371,2.371,0,0,0-.749.654,2.693,2.693,0,0,0-.437.927,4.043,4.043,0,0,0,0,2.113,2.694,2.694,0,0,0,.437.927,2.4,2.4,0,0,0,.749.669,2.088,2.088,0,0,0,1.076.258Zm4.838-7.037h1.42v-2.493h1.873v2.478h1.685v1.353H245.46v4.408a4.555,4.555,0,0,0,.031.5,1.034,1.034,0,0,0,.109.349.607.607,0,0,0,.265.213,1.427,1.427,0,0,0,.5.076,3.351,3.351,0,0,0,.39-.015,3.466,3.466,0,0,0,.39-.061v1.413c-.2.03-.406.046-.609.061a3.988,3.988,0,0,1-.609.03,4.138,4.138,0,0,1-1.185-.137,1.714,1.714,0,0,1-.7-.4,1.4,1.4,0,0,1-.343-.654,5.053,5.053,0,0,1-.109-.912V305.2h-1.42v-1.353Z" transform="translate(683.187 -561.942)"/>
  </g>
</svg>
